#!OML:ASF I:\Actors\actors\Patient Classification 2\Patient 1\Session 1\actor1.ASF
:FULLY-SPECIFIED
:DEGREES
374
root -0.947949 18.5344 6.99529 2.14177 -2.88261 -5.42059
lowerback 6.58019 0.655939 3.2471
upperback -2.82485 1.16782 -0.199301
thorax -6.58332 0.430678 -2.17447
lowerneck -4.97372 -1.39935 -1.24268
upperneck 19.0222 -1.93264 0.837513
head 6.61901 -0.957327 0.337537
rclavicle -8.65956e-015 -4.77083e-015
rhumerus -28.6864 18.5695 -91.5313
rradius 122.365
rwrist 23.3555
rhand 14.9879 -49.047
rfingers 7.12502
rthumb 39.8402 -74.3211
lclavicle -8.65956e-015 -4.77083e-015
lhumerus -30.6889 -17.2105 98.5326
lradius 120.01
lwrist -23.3687
lhand 41.6619 0.842917
lfingers 7.12502
lthumb 63.7577 9.96129
rfemur 10.3007 2.22238 20.1424
rtibia 7.95139e-015
rfoot -17.2634 -11.1042
rtoes -15.6787
lfemur -4.2942 -2.93281 -8.21304
ltibia 27.5481
lfoot -24.6045 9.588
ltoes -58.0151
375
root -0.948803 18.5348 6.9831 1.94513 -3.06314 -5.40757
lowerback 6.4954 0.592887 3.29575
upperback -2.56153 1.06745 -0.405574
thorax -6.25724 0.384223 -2.40132
lowerneck -4.44472 -1.2472 -0.923525
upperneck 20.0377 -1.78694 0.892678
head 6.84798 -0.861386 0.313734
rclavicle -1.01877e-014 7.15625e-015
rhumerus -27.0403 20.1296 -90.811
rradius 123.19
rwrist 23.1819
rhand 14.3425 -48.8502
rfingers 7.12502
rthumb 39.2324 -74.3032
lclavicle -1.01877e-014 7.15625e-015
lhumerus -30.6391 -17.1299 97.9278
lradius 120.153
lwrist -23.3303
lhand 41.8424 1.15928
lfingers 7.12502
lthumb 63.9037 10.0618
rfemur 10.4603 2.40368 20.1394
rtibia -2.70347e-014
rfoot -17.2841 -11.1348
rtoes -15.8126
lfemur -4.08224 -2.63995 -8.2025
ltibia 27.5554
lfoot -24.5058 9.53184
ltoes -58.1321
376
root -0.9525 18.5333 6.96921 1.67686 -3.29893 -5.36596
lowerback 6.43633 0.535147 3.25234
upperback -2.21937 0.965215 -0.640004
thorax -5.86546 0.342845 -2.60535
lowerneck -3.68162 -1.15755 -0.553574
upperneck 20.8521 -1.75425 1.06964
head 6.97454 -0.805948 0.314429
rclavicle 8.26509e-015 2.14687e-014
rhumerus -25.3 21.6868 -89.9852
rradius 124.109
rwrist 23.1677
rhand 14.1312 -48.9107
rfingers 7.12502
rthumb 39.0332 -74.4212
lclavicle 8.26509e-015 2.14687e-014
lhumerus -30.5166 -17.0134 97.2274
lradius 120.31
lwrist -23.2916
lhand 41.9717 1.09526
lfingers 7.12502
lthumb 64.0081 9.84155
rfemur 10.6933 2.63802 20.121
rtibia 1.11319e-014
rfoot -17.296 -11.158
rtoes -16.0643
lfemur -3.76847 -2.30424 -8.21104
ltibia 27.5416
lfoot -24.3625 9.38787
ltoes -58.2516
377
root -0.958763 18.5312 6.95369 1.33434 -3.57652 -5.23349
lowerback 6.43463 0.483371 3.04475
upperback -1.81257 0.859113 -0.88914
thorax -5.44248 0.306729 -2.73215
lowerneck -2.74586 -1.09544 -0.313993
upperneck 21.5265 -1.78565 1.47049
head 7.03035 -0.773328 0.406458
rclavicle -5.09386e-015 7.15625e-015
rhumerus -23.5003 23.2786 -88.9846
rradius 125.048
rwrist 23.2453
rhand 13.7661 -48.8654
rfingers 7.12502
rthumb 38.689 -74.4738
lclavicle -5.09386e-015 7.15625e-015
lhumerus -30.3387 -16.8167 96.5164
lradius 120.488
lwrist -23.2859
lhand 42.0242 0.915771
lfingers 7.12502
lthumb 64.0504 9.59835
rfemur 10.9928 2.91283 20.0111
rtibia 1.59028e-015
rfoot -17.2682 -11.179
rtoes -16.3736
lfemur -3.36653 -1.93075 -8.30949
ltibia 27.512
lfoot -24.227 9.21052
ltoes -58.3549
378
root -0.965088 18.5278 6.93404 0.854069 -3.86483 -5.06858
lowerback 6.58239 0.442717 2.80664
upperback -1.3559 0.769245 -1.18853
thorax -5.05265 0.278126 -2.89773
lowerneck -1.73445 -1.10386 -0.174074
upperneck 22.2045 -1.94744 2.0871
head 7.08003 -0.794343 0.57787
rclavicle 3.62782e-015 -7.95139e-015
rhumerus -21.6261 24.7675 -87.8393
rradius 125.875
rwrist 23.1651
rhand 13.1581 -48.7595
rfingers 7.12502
rthumb 38.1152 -74.5273
lclavicle 3.62782e-015 -7.95139e-015
lhumerus -30.1665 -16.6139 95.8352
lradius 120.7
lwrist -23.2442
lhand 41.9343 0.767762
lfingers 7.12502
lthumb 63.978 9.55934
rfemur 11.422 3.2 19.8761
rtibia 0
rfoot -17.2289 -11.2017
rtoes -16.4999
lfemur -2.83082 -1.596 -8.44442
ltibia 27.4762
lfoot -24.1543 9.06805
ltoes -58.3843
379
root -0.969429 18.5233 6.90637 0.293104 -4.09989 -4.93324
lowerback 6.94063 0.404445 2.65689
upperback -0.924716 0.694258 -1.54718
thorax -4.80757 0.250075 -3.18019
lowerneck -0.606848 -1.2055 -0.0522488
upperneck 22.8365 -2.27036 2.87309
head 7.10149 -0.883086 0.799946
rclavicle -7.72775e-015 2.38542e-015
rhumerus -19.8463 26.0769 -86.7209
rradius 126.616
rwrist 22.9247
rhand 12.4646 -48.6109
rfingers 7.12502
rthumb 37.46 -74.5551
lclavicle -7.72775e-015 2.38542e-015
lhumerus -30.1281 -16.4688 95.189
lradius 120.949
lwrist -23.1098
lhand 41.7201 0.729259
lfingers 7.12502
lthumb 63.8048 9.77828
rfemur 11.9137 3.43733 19.7789
rtibia -4.6118e-014
rfoot -17.2147 -11.237
rtoes -16.3787
lfemur -2.24855 -1.36372 -8.55625
ltibia 27.4519
lfoot -24.1231 8.95926
ltoes -58.2974
380
root -0.974049 18.5198 6.87059 -0.238668 -4.24406 -4.81169
lowerback 7.47916 0.334398 2.48184
upperback -0.519902 0.578663 -1.90237
thorax -4.69595 0.199955 -3.44345
lowerneck 0.446706 -1.35411 0.135877
upperneck 23.3762 -2.66205 3.65969
head 7.11063 -1.00155 1.00931
rclavicle -3.42904e-015 2.8625e-014
rhumerus -18.1925 27.3156 -85.565
rradius 127.371
rwrist 22.6289
rhand 11.8576 -48.4352
rfingers 7.12502
rthumb 36.886 -74.529
lclavicle -3.42904e-015 2.8625e-014
lhumerus -30.0693 -16.2351 94.5937
lradius 121.188
lwrist -22.9943
lhand 41.6614 0.767771
lfingers 7.12502
lthumb 63.7573 9.88668
rfemur 12.3506 3.58571 19.7002
rtibia -9.54166e-015
rfoot -17.1871 -11.3066
rtoes -16.3953
lfemur -1.77345 -1.19618 -8.64649
ltibia 27.4655
lfoot -24.007 8.90771
ltoes -58.2984
381
root -0.978318 18.5175 6.82977 -0.739971 -4.38912 -4.71102
lowerback 8.13438 0.228409 2.21877
upperback -0.118908 0.410549 -2.18729
thorax -4.65941 0.125366 -3.57842
lowerneck 1.27296 -1.50439 0.178207
upperneck 23.9411 -3.05698 4.46226
head 7.17393 -1.13119 1.25018
rclavicle 2.88238e-015 0
rhumerus -16.6343 28.6102 -84.2974
rradius 128.153
rwrist 22.1115
rhand 11.5295 -48.4804
rfingers 7.12502
rthumb 36.5756 -74.6535
lclavicle 2.88238e-015 0
lhumerus -29.9589 -15.753 94.1037
lradius 121.429
lwrist -22.9846
lhand 41.7609 0.620034
lfingers 7.12502
lthumb 63.8378 9.62031
rfemur 12.7302 3.73627 19.6455
rtibia -4.6118e-014
rfoot -17.1067 -11.4245
rtoes -16.6706
lfemur -1.38489 -1.05758 -8.71281
ltibia 27.5186
lfoot -23.8129 8.9007
ltoes -58.4156
382
root -0.979195 18.5158 6.78904 -1.17255 -4.57069 -4.60562
lowerback 8.80482 0.152325 1.93438
upperback 0.236298 0.277518 -2.45851
thorax -4.67583 0.06698 -3.69062
lowerneck 1.93507 -1.69848 -0.0142065
upperneck 24.5123 -3.55001 5.45841
head 7.28161 -1.31154 1.59135
rclavicle 1.73937e-015 -1.74931e-014
rhumerus -15.1931 29.7907 -82.9344
rradius 128.898
rwrist 21.2181
rhand 11.4608 -48.78
rfingers 7.12502
rthumb 36.5105 -74.9694
lclavicle 1.73937e-015 -1.74931e-014
lhumerus -29.9702 -15.2985 93.704
lradius 121.684
lwrist -22.9763
lhand 41.8212 0.385107
lfingers 7.12502
lthumb 63.8866 9.31309
rfemur 13.0186 3.92688 19.5696
rtibia 6.36111e-015
rfoot -16.9884 -11.5368
rtoes -16.8707
lfemur -1.07444 -0.935554 -8.80885
ltibia 27.5939
lfoot -23.6693 8.88374
ltoes -58.4522
383
root -0.980774 18.5146 6.74919 -1.50383 -4.69821 -4.46415
lowerback 9.47305 0.117769 1.63144
upperback 0.558417 0.188408 -2.83325
thorax -4.72092 0.0284518 -3.90651
lowerneck 2.42599 -2.0078 -0.119552
upperneck 24.9323 -4.24517 6.61502
head 7.38586 -1.56942 1.96075
rclavicle -7.25564e-015 3.33958e-014
rhumerus -14.0255 30.6819 -81.7658
rradius 129.54
rwrist 20.3777
rhand 11.6064 -48.7546
rfingers 7.12502
rthumb 36.6483 -74.9092
lclavicle -7.25564e-015 3.33958e-014
lhumerus -30.0385 -15.0833 93.2182
lradius 121.974
lwrist -22.9415
lhand 41.836 0.152394
lfingers 7.12502
lthumb 63.8985 9.06265
rfemur 13.2008 4.06567 19.4465
rtibia -5.40694e-014
rfoot -16.8639 -11.6253
rtoes -17.0733
lfemur -0.886458 -0.802789 -8.94281
ltibia 27.6769
lfoot -23.5494 8.85807
ltoes -58.4871
384
root -0.987376 18.5146 6.70932 -1.73425 -4.68062 -4.32005
lowerback 10.1108 0.0273837 1.24348
upperback 0.835987 0.00920927 -3.22725
thorax -4.80209 -0.0543376 -4.08203
lowerneck 2.749 -2.32258 -0.320603
upperneck 25.3037 -4.99692 7.96588
head 7.52228 -1.84642 2.40995
rclavicle 1.07344e-014 1.27222e-014
rhumerus -13.3547 31.5952 -81.0282
rradius 130.099
rwrist 19.8963
rhand 11.8063 -48.3684
rfingers 7.12502
rthumb 36.8375 -74.4747
lclavicle 1.07344e-014 1.27222e-014
lhumerus -30.1133 -14.7944 92.6879
lradius 122.34
lwrist -23.0045
lhand 41.8264 -0.00502289
lfingers 7.12502
lthumb 63.8908 8.91671
rfemur 13.297 4.05719 19.3251
rtibia -4.45278e-014
rfoot -16.7681 -11.6806
rtoes -17.1623
lfemur -0.846705 -0.668673 -9.03745
ltibia 27.7558
lfoot -23.3873 8.7743
ltoes -58.5913
385
root -0.997379 18.5159 6.67169 -1.86678 -4.54148 -4.18686
lowerback 10.4936 -0.167445 0.71091
upperback 1.21595 -0.320006 -3.51481
thorax -4.64318 -0.203179 -4.03541
lowerneck 2.61055 -2.49886 -0.697776
upperneck 25.6724 -5.58112 9.35207
head 7.74606 -2.04368 2.90937
rclavicle -1.23246e-014 0
rhumerus -12.4367 32.6466 -80.1625
rradius 130.473
rwrist 19.4566
rhand 12.076 -48.3602
rfingers 7.12502
rthumb 37.0926 -74.4006
lclavicle -1.23246e-014 0
lhumerus -29.9318 -14.2036 92.216
lradius 122.76
lwrist -23.165
lhand 41.9861 0.0326664
lfingers 7.12502
lthumb 64.0197 8.76156
rfemur 13.3164 3.92437 19.2152
rtibia 6.36111e-015
rfoot -16.6982 -11.7063
rtoes -17.0788
lfemur -0.928473 -0.565297 -9.094
ltibia 27.8181
lfoot -23.2344 8.60703
ltoes -58.5647
